<svg xmlns="http://www.w3.org/2000/svg" viewBox="0 0 139.48 39.69"><defs><style>.cls-1,.cls-2,.cls-3{fill-rule:evenodd;}.cls-2,.cls-4{fill:#fff;}.cls-3{fill:#00f075;}</style></defs><title>Ativo 1</title><g id="Camada_2" data-name="Camada 2"><g id="Layer_1" data-name="Layer 1"><path class="cls-1" d="M.08,35.83a4.28,4.28,0,0,0,2.3,3.31c1.3.72,3.45.51,5.09.51h123a39.19,39.19,0,0,0,5.57-.11A4.47,4.47,0,0,0,139.08,37c.54-1.25.35-3.76.35-5.27,0-2.92.12-26.73,0-27.91A4.46,4.46,0,0,0,137.05.52c-1.39-.69-3.4-.47-5.1-.47H9C5,.05,1.8-.57.39,2.71-.14,3.93,0,6.41,0,7.92c0,2.93-.12,26.72,0,27.91"/><path class="cls-2" d="M78.08,12.72h1V8s0,0,0,0l2.26,3.52c.84,1.38.56,1.19,1.75,1.17V6.35h-1L82,10.67l-.31-.42c-.14-.23-.21-.35-.34-.55-.27-.43-.47-.73-.73-1.13-.44-.71-1-1.54-1.39-2.23H78.08ZM48.8,9.27a21.65,21.65,0,0,0-3.24,0v.9l2.22,0c-.09,2.2-3.77,2.4-4.36.08a2.34,2.34,0,0,1,2.67-3c.82.11.9.51,1.34.71a2,2,0,0,0,.61-.73A3.36,3.36,0,0,0,42.62,11C44.12,14.08,49.33,13.27,48.8,9.27ZM73,6.31a3.27,3.27,0,0,0-2.39,4c1,4.26,7.56,2.69,6.46-1.67A3.32,3.32,0,0,0,73,6.31Zm3.07,3.82c-.57,2.81-5.18,2.1-4.47-1.19a2.31,2.31,0,0,1,2.85-1.71A2.38,2.38,0,0,1,76.05,10.13ZM49.82,12.67h3.83V11.8H50.92V10l2.43,0V9.07H50.92V7.29h2.75V6.36l-3.86,0ZM63.56,7.29h1.75v5.44h1V7.3h1.75v-1H63.56Zm-9.25,0h1.74v5.4l1,0V7.29h1.74V6.37l-4.5,0Zm7.42,5.38,1,.05V6.35h-1Z"/><path class="cls-3" d="M30.18,7.27a2.36,2.36,0,0,0-2.41,0c-.31,0-4.48,1.2-5,1.39L6.2,13.25c-.67.2-1.59.49-1.76,1.38-.05.26,0,.08,0,.33a1.11,1.11,0,0,0,.45,1c0,.39,7.36,7.5,8.3,8.43l4.26,4.26c1.3,1.3,2.86,3,4.23,4.16.41.17.52.31.89.26.9.3,1.5-1.05,1.69-1.77s.45-1.57.67-2.38c.43-1.58.89-3.15,1.35-4.76l2.65-9.45c.44-1.27.77-2.77,1.15-4.08C30.34,9.65,31,8,30.18,7.27ZM16.49,27.4l-.17-.21.53.66Z"/><path class="cls-4" d="M50.06,27.47a.51.51,0,0,1,.2,0,.38.38,0,0,1,.19.13l1.13,1.19a4.68,4.68,0,0,1-1.86,1.46,6.45,6.45,0,0,1-2.64.49,6.24,6.24,0,0,1-2.51-.47A5.41,5.41,0,0,1,42.69,29a5.62,5.62,0,0,1-1.19-2,7.25,7.25,0,0,1-.41-2.5A6.51,6.51,0,0,1,41.56,22a5.77,5.77,0,0,1,1.32-2,5.85,5.85,0,0,1,2-1.3,7.09,7.09,0,0,1,2.61-.46,6.75,6.75,0,0,1,1.3.12,5.61,5.61,0,0,1,1.14.34,5.11,5.11,0,0,1,1.78,1.17l-1,1.3a1.39,1.39,0,0,1-.21.21.57.57,0,0,1-.36.1.59.59,0,0,1-.29-.07l-.28-.16L49.29,21a3.47,3.47,0,0,0-.43-.21,3.42,3.42,0,0,0-.58-.16,3.58,3.58,0,0,0-.78-.07,3.46,3.46,0,0,0-1.42.28,3.07,3.07,0,0,0-1.1.78,3.68,3.68,0,0,0-.72,1.24A4.85,4.85,0,0,0,44,24.5a5.12,5.12,0,0,0,.25,1.68,3.85,3.85,0,0,0,.7,1.23,3,3,0,0,0,1,.77,3.12,3.12,0,0,0,1.26.26c.26,0,.5,0,.71,0a3.53,3.53,0,0,0,.6-.13,2.71,2.71,0,0,0,.52-.24,3.21,3.21,0,0,0,.5-.37,1,1,0,0,1,.22-.14A.7.7,0,0,1,50.06,27.47Z"/><path class="cls-4" d="M55.59,18V30.65H53V18Z"/><path class="cls-4" d="M63.74,30.65a1.3,1.3,0,0,1-.56-.1.76.76,0,0,1-.32-.42l-.19-.49a7.8,7.8,0,0,1-.63.49,3.94,3.94,0,0,1-.63.36,2.93,2.93,0,0,1-.69.22,4.07,4.07,0,0,1-.81.07,3.68,3.68,0,0,1-1.09-.15,2.29,2.29,0,0,1-.83-.46,2,2,0,0,1-.53-.76,2.61,2.61,0,0,1-.19-1,2.12,2.12,0,0,1,.24-.95,2.29,2.29,0,0,1,.82-.89,5.39,5.39,0,0,1,1.57-.68,10.45,10.45,0,0,1,2.49-.3v-.37a1.62,1.62,0,0,0-.32-1.11,1.15,1.15,0,0,0-.9-.34,2.33,2.33,0,0,0-.76.1,3.13,3.13,0,0,0-.52.23l-.46.23a1.34,1.34,0,0,1-.52.1.86.86,0,0,1-.46-.13.94.94,0,0,1-.3-.33l-.47-.82a5.25,5.25,0,0,1,1.76-1,6.07,6.07,0,0,1,2.07-.34,3.61,3.61,0,0,1,1.43.26A3.13,3.13,0,0,1,64,22.7a3.09,3.09,0,0,1,.68,1.1,3.85,3.85,0,0,1,.24,1.38v5.47Zm-3-1.6a2.24,2.24,0,0,0,.89-.17,2.73,2.73,0,0,0,.77-.58V27.09a8.21,8.21,0,0,0-1.3.13,2.77,2.77,0,0,0-.8.26.9.9,0,0,0-.41.34.79.79,0,0,0-.12.42.72.72,0,0,0,.25.63A1.19,1.19,0,0,0,60.73,29.05Z"/><path class="cls-4" d="M70,32.92a1,1,0,0,1-.28.38,1,1,0,0,1-.54.12h-2l1.69-3.54-3.5-8h2.31a.76.76,0,0,1,.48.13.71.71,0,0,1,.23.32l1.44,3.78a9.65,9.65,0,0,1,.33,1c0-.18.12-.36.18-.53s.14-.35.2-.53l1.3-3.76a.58.58,0,0,1,.26-.32.75.75,0,0,1,.43-.13h2.11Z"/><path class="cls-4" d="M85.9,20.85a.89.89,0,0,1-.27.3.57.57,0,0,1-.36.11.92.92,0,0,1-.41-.13l-.51-.27a5.56,5.56,0,0,0-.64-.28,2.68,2.68,0,0,0-.83-.12,1.85,1.85,0,0,0-1.2.34,1.18,1.18,0,0,0-.39.93.82.82,0,0,0,.24.61,2,2,0,0,0,.62.43,7.94,7.94,0,0,0,.88.32l1,.33a7.47,7.47,0,0,1,1,.43,3.41,3.41,0,0,1,.88.62,2.87,2.87,0,0,1,.62.92,3.31,3.31,0,0,1,.24,1.32,4.17,4.17,0,0,1-.3,1.59,3.81,3.81,0,0,1-.85,1.3,4,4,0,0,1-1.39.87,5.2,5.2,0,0,1-1.87.31,6.8,6.8,0,0,1-1.17-.11,6.6,6.6,0,0,1-1.15-.34,6.37,6.37,0,0,1-1-.51,4.37,4.37,0,0,1-.85-.66L79,27.83a.67.67,0,0,1,.26-.24.65.65,0,0,1,.36-.1,1,1,0,0,1,.51.16l.58.36a4.35,4.35,0,0,0,.75.35,2.72,2.72,0,0,0,1,.16,1.86,1.86,0,0,0,1.2-.34,1.29,1.29,0,0,0,.43-1.08,1.1,1.1,0,0,0-.23-.71,1.92,1.92,0,0,0-.62-.44,5.63,5.63,0,0,0-.88-.31l-1-.3a7.92,7.92,0,0,1-1-.41,3.33,3.33,0,0,1-.87-.63,3.1,3.1,0,0,1-.62-1,3.82,3.82,0,0,1-.24-1.45,3.55,3.55,0,0,1,.28-1.35,3.5,3.5,0,0,1,.82-1.17,4.12,4.12,0,0,1,1.33-.83,5,5,0,0,1,1.79-.3,6.74,6.74,0,0,1,1.11.09,4.83,4.83,0,0,1,1,.26,5.26,5.26,0,0,1,.9.41,3.82,3.82,0,0,1,.75.55Z"/><path class="cls-4" d="M91.27,30.78a3.06,3.06,0,0,1-1.1-.18,2.24,2.24,0,0,1-.81-.51,2.2,2.2,0,0,1-.49-.81,3.17,3.17,0,0,1-.17-1.05V23.7H88a.49.49,0,0,1-.35-.13.51.51,0,0,1-.14-.38v-1l1.39-.27.52-2.14a.51.51,0,0,1,.57-.4h1.37v2.55h2.12V23.7H91.32v4.35a.8.8,0,0,0,.15.5.49.49,0,0,0,.42.2.78.78,0,0,0,.24,0l.17-.07a.84.84,0,0,1,.14-.06.32.32,0,0,1,.14,0,.27.27,0,0,1,.19.05.65.65,0,0,1,.15.17L93.71,30a3.22,3.22,0,0,1-1.14.57A4.35,4.35,0,0,1,91.27,30.78Z"/><path class="cls-4" d="M98.85,21.76a5.25,5.25,0,0,1,1.81.31,4.06,4.06,0,0,1,1.41.9,4.13,4.13,0,0,1,.91,1.41,5.28,5.28,0,0,1,.32,1.87,5.35,5.35,0,0,1-.32,1.89,4.08,4.08,0,0,1-.91,1.42,3.94,3.94,0,0,1-1.41.91,5,5,0,0,1-1.81.31A5.09,5.09,0,0,1,97,30.47a4,4,0,0,1-2.34-2.33,5.13,5.13,0,0,1-.32-1.89,5.06,5.06,0,0,1,.32-1.87A4,4,0,0,1,95.6,23a4.1,4.1,0,0,1,1.42-.9A5.32,5.32,0,0,1,98.85,21.76Zm0,7.08a1.5,1.5,0,0,0,1.33-.63,3.61,3.61,0,0,0,.42-1.94,3.52,3.52,0,0,0-.42-1.93,1.49,1.49,0,0,0-1.33-.64,1.51,1.51,0,0,0-1.36.64,3.43,3.43,0,0,0-.43,1.93,3.51,3.51,0,0,0,.43,1.94A1.52,1.52,0,0,0,98.85,28.84Z"/><path class="cls-4" d="M104.74,30.65V21.9h1.55a1.39,1.39,0,0,1,.32,0,.51.51,0,0,1,.22.11.4.4,0,0,1,.14.19,1.36,1.36,0,0,1,.08.28l.14.82a4.37,4.37,0,0,1,1.08-1.17,2.19,2.19,0,0,1,1.31-.43,1.5,1.5,0,0,1,1,.28l-.33,1.93a.4.4,0,0,1-.14.25.45.45,0,0,1-.27.07,1.48,1.48,0,0,1-.34,0,3.11,3.11,0,0,0-.49,0,1.82,1.82,0,0,0-1.62,1.1v5.37Z"/><path class="cls-4" d="M115.45,21.76a4.59,4.59,0,0,1,1.6.27,3.42,3.42,0,0,1,1.24.79,3.7,3.7,0,0,1,.81,1.26,4.71,4.71,0,0,1,.29,1.69,3,3,0,0,1,0,.48.76.76,0,0,1-.09.3.43.43,0,0,1-.18.15.81.81,0,0,1-.29,0h-5a2.45,2.45,0,0,0,.67,1.59,2,2,0,0,0,1.39.5,2.57,2.57,0,0,0,.78-.11,4.76,4.76,0,0,0,.59-.25l.47-.24a.93.93,0,0,1,.45-.11.55.55,0,0,1,.48.22l.76.94a3.91,3.91,0,0,1-.88.76,4.64,4.64,0,0,1-1,.45,5.06,5.06,0,0,1-1,.23,7.66,7.66,0,0,1-.94.06,4.86,4.86,0,0,1-1.72-.3,3.85,3.85,0,0,1-1.41-.89,4.32,4.32,0,0,1-1-1.46,5.61,5.61,0,0,1-.35-2.05,4.61,4.61,0,0,1,.3-1.66,4.28,4.28,0,0,1,.86-1.38,4.21,4.21,0,0,1,1.36-.93A4.55,4.55,0,0,1,115.45,21.76Zm.06,1.81a1.59,1.59,0,0,0-1.18.42,2.35,2.35,0,0,0-.56,1.23H117a2.09,2.09,0,0,0-.08-.61,1.41,1.41,0,0,0-.26-.52,1.31,1.31,0,0,0-.48-.38A1.66,1.66,0,0,0,115.51,23.57Z"/></g></g></svg>