<svg xmlns="http://www.w3.org/2000/svg" viewBox="0 0 138.27 39.72"><defs><style>.cls-1,.cls-2{fill-rule:evenodd;}.cls-2,.cls-3{fill:#fcfcfc;}</style></defs><title>Ativo 2</title><g id="Camada_2" data-name="Camada 2"><g id="Layer_1" data-name="Layer 1"><path class="cls-1" d="M3.55,39.58l.22.07c2.76.14,5.81,0,8.6,0H133.14c1.89,0,3.47-.11,4.55-1.91a5.26,5.26,0,0,0,.55-1.59l0-29,0-3.51A3.87,3.87,0,0,0,136.72.85c-1-.82-1.95-.84-3.5-.84L12.3,0C9.44,0,6.5,0,3.65,0L3.47.11C2.29,0,.73,1.3.26,2.69-.13,3.82,0,6.84,0,8.25V31.44C0,32.81-.12,35.91.26,37c.49,1.41,2.06,2.72,3.29,2.58"/><path class="cls-2" d="M120.65,11.3a3.4,3.4,0,0,0,.45,1c.86,1.06,2.43,1,3.57.54l-.16-.74A2.86,2.86,0,0,1,122.2,12a.76.76,0,0,1-.38-.6c-.17-.16-.15-.29-.16-.56h3.26c.14-1.69-.59-3.06-2.36-2.8S120.51,9.84,120.65,11.3Zm1-1.26c.15-1.59,2.19-1.8,2.24,0Zm-6.88,3,1-.05a33.17,33.17,0,0,1,.09-3.4,1,1,0,0,1,2,.23A15.08,15.08,0,0,1,118,13h1c0-1.13,0-2.29,0-3.39a1.61,1.61,0,0,0-2.21-1.49c-.37.12-.5.35-.73.45s.13.06-.14.19l0-2.88h-1.06ZM111,7.22l-.05.93-.71.07v.71L111,9l0,2.31a2.18,2.18,0,0,0,.46,1.6,1.79,1.79,0,0,0,1.73.12v-.79c-.52.06-1,.13-1-.35A9.61,9.61,0,0,1,112.06,9l1.2,0V8.19L112,8.13l0-1.2Zm-8.48,1-.85.05,0,4.77h1a16.57,16.57,0,0,1,.09-3.15,1,1,0,0,1,1.94-.3,25.71,25.71,0,0,1,.11,3.46l1,.05c.08-1,.16-3.44-.28-4.24a1.54,1.54,0,0,0-1.54-.79c-.83,0-1,.44-1.44.81Zm-7.22,3.1c.31.7.58,1.79,2.19,1.84A2.4,2.4,0,0,0,100,11.45c.29-1.82-.33-3.35-2.13-3.41a2.29,2.29,0,0,0-2,.83A3,3,0,0,0,95.34,11.3Zm1.07-.38c-.25-2.49,2.3-2.84,2.52-.62C99.17,12.68,96.63,13.09,96.41,10.92ZM89.55,8.5A2.41,2.41,0,0,0,88.23,8a2,2,0,0,0-1.3.5c-1.25,1.14-1.09,3.93.62,4.5a1.85,1.85,0,0,0,2.2-.75l.06.71.94.09,0-7.19H89.65l0,2.76ZM88,9c.86-.43,1.54.27,1.61,1.07.08,1,0,1.84-.76,2.11C87.14,12.83,86.56,9.74,88,9Zm-6.27,4.12a2,2,0,0,0,1.75-.6l.11.5.95,0-.09-.46c-.1-.86.15-3.1-.3-3.86s-2.42-.9-3.25-.24l.21.67a2.73,2.73,0,0,1,1.53-.32.8.8,0,0,1,.71,1C79.58,10.09,80.18,12.88,81.76,13.12Zm1.69-2.52c0,.62.08,1.11-.32,1.46-1,.92-2.06-.46-1.15-1.15A2.6,2.6,0,0,1,83.45,10.6Zm-6.58,2.55a2.67,2.67,0,0,0,1.56-.52C79.9,11.54,79.6,8,76.87,8,73.71,8.14,73.82,13.14,76.87,13.15Zm-.35-4.22c1.78-.71,2.25,2.71.83,3.3C75.55,13,75,9.55,76.52,8.93Zm-4.67,4.15H72.9V5.9H71.83ZM66.63,8.83l0-.68-1,0,0,4.91h1.06c.13-1.31-.53-3.95,1-4.11s1,2.23,1.11,4.08l1.07,0c.07-1,.13-3.42-.28-4.18a1.55,1.55,0,0,0-1.53-.81C67.11,8.09,66.93,8.74,66.63,8.83Zm-8,4.21h1c.23-.59.37-1.19.57-1.79s.36-1.5.51-1.83c.13.23.95,3.16,1.07,3.6l1,0,1.53-4.9H63.23c-.32.76-.81,3.48-1,3.85-.12-.64-.32-1.34-.5-2-.66-2.17-.27-1.91-1.42-1.9L59.2,12l-.78-3.39c-.14-.55,0-.44-1.21-.43ZM53,8.16C50.13,9,51.1,14,54.44,13,57.19,12.21,56.46,7.21,53,8.16Zm.3.76c1.74-.68,2.22,2.68.83,3.31C52.39,13,51.74,9.55,53.34,8.92ZM44.46,6.33c0,1-.11,6.12,0,6.68,3,.3,5.51-.3,5.53-3.47S47.45,6,44.46,6.33Zm1.1,5.86V7.12c2-.33,3.34.4,3.34,2.42S47.61,12.46,45.56,12.19ZM23.17,26a4.87,4.87,0,0,0-3.87,1.79A6.1,6.1,0,0,0,17.89,32c1,.22,3-1,3.81-1.85C22.34,29.45,23.54,27.45,23.17,26Zm-1.82-1.67h0a8.52,8.52,0,0,1-8.5-8.5h0a8.52,8.52,0,0,1,8.5-8.5h0a8.53,8.53,0,0,1,8.5,8.5h0A8.52,8.52,0,0,1,21.35,24.28Zm-5.5-7a3,3,0,1,1-3-3A3,3,0,0,1,15.85,17.28Z"/><path class="cls-3" d="M47.34,26.29V30.4H44.49V18.11h4.34a7,7,0,0,1,2.23.31,4.21,4.21,0,0,1,1.54.84,3.33,3.33,0,0,1,.89,1.28,4.35,4.35,0,0,1,.29,1.58,4.58,4.58,0,0,1-.3,1.69,3.53,3.53,0,0,1-.9,1.32A4.48,4.48,0,0,1,51,26a7.25,7.25,0,0,1-2.21.3Zm0-2.15h1.49a1.81,1.81,0,0,0,2.09-2,2.29,2.29,0,0,0-.12-.76,1.73,1.73,0,0,0-.39-.6,1.8,1.8,0,0,0-.65-.38,2.84,2.84,0,0,0-.93-.14H47.34Z"/><path class="cls-3" d="M58,17.77V30.4H55.34V17.77Z"/><path class="cls-3" d="M66.11,30.4a1.22,1.22,0,0,1-.56-.1.76.76,0,0,1-.31-.42l-.19-.48a7.8,7.8,0,0,1-.63.49,4.43,4.43,0,0,1-.63.36,3.26,3.26,0,0,1-.69.22,4.18,4.18,0,0,1-.82.07,3.42,3.42,0,0,1-1.09-.16,2.17,2.17,0,0,1-.83-.46,2,2,0,0,1-.53-.75,2.8,2.8,0,0,1-.18-1,2.19,2.19,0,0,1,.24-1,2.4,2.4,0,0,1,.81-.89,5.25,5.25,0,0,1,1.57-.67,10.45,10.45,0,0,1,2.49-.3v-.37a1.63,1.63,0,0,0-.31-1.12,1.19,1.19,0,0,0-.9-.34,2.64,2.64,0,0,0-.76.1,4.43,4.43,0,0,0-.53.23,4.78,4.78,0,0,1-.45.23,1.21,1.21,0,0,1-.52.1.76.76,0,0,1-.46-.13.91.91,0,0,1-.3-.32l-.48-.82a5.38,5.38,0,0,1,1.76-1.05,6.43,6.43,0,0,1,2.08-.34,3.83,3.83,0,0,1,1.43.26,3.1,3.1,0,0,1,1.08.72,3.2,3.2,0,0,1,.68,1.09,4.09,4.09,0,0,1,.23,1.39V30.4Zm-3-1.59a2,2,0,0,0,.89-.18,2.73,2.73,0,0,0,.77-.57V26.84a8.05,8.05,0,0,0-1.29.14,3,3,0,0,0-.81.25,1,1,0,0,0-.41.35.88.88,0,0,0-.11.42.74.74,0,0,0,.24.63A1.24,1.24,0,0,0,63.1,28.81Z"/><path class="cls-3" d="M72.41,32.67a.87.87,0,0,1-.29.39.94.94,0,0,1-.54.12h-2l1.68-3.54-3.49-8h2.31a.73.73,0,0,1,.47.14.62.62,0,0,1,.24.32l1.44,3.77a8.41,8.41,0,0,1,.32,1.05c.06-.18.12-.36.19-.53s.13-.36.19-.54l1.3-3.75a.71.71,0,0,1,.27-.33.8.8,0,0,1,.43-.13h2.11Z"/><path class="cls-3" d="M92.87,30.4H90.66a1,1,0,0,1-.62-.17.85.85,0,0,1-.33-.44L89,27.64H84.31l-.73,2.15a.82.82,0,0,1-.33.42.91.91,0,0,1-.59.19H80.43l4.76-12.29h2.92ZM85,25.7h3.36L87.2,22.34c-.08-.22-.16-.47-.26-.76s-.2-.6-.29-.94c-.09.34-.19.66-.28.95s-.19.55-.27.76Z"/><path class="cls-3" d="M96.72,26.29V30.4H93.86V18.11H98.2a7,7,0,0,1,2.23.31,4.13,4.13,0,0,1,1.54.84,3.33,3.33,0,0,1,.89,1.28,4.35,4.35,0,0,1,.29,1.58,4.58,4.58,0,0,1-.3,1.69,3.53,3.53,0,0,1-.9,1.32,4.48,4.48,0,0,1-1.54.86,7.25,7.25,0,0,1-2.21.3Zm0-2.15H98.2a1.81,1.81,0,0,0,2.09-2,2.29,2.29,0,0,0-.12-.76,1.6,1.6,0,0,0-.39-.6,1.72,1.72,0,0,0-.65-.38,2.84,2.84,0,0,0-.93-.14H96.72Z"/><path class="cls-3" d="M107.48,26.29V30.4h-2.85V18.11H109a7,7,0,0,1,2.23.31,4.21,4.21,0,0,1,1.54.84,3.33,3.33,0,0,1,.89,1.28,4.35,4.35,0,0,1,.29,1.58,4.58,4.58,0,0,1-.3,1.69,3.53,3.53,0,0,1-.9,1.32,4.48,4.48,0,0,1-1.54.86,7.29,7.29,0,0,1-2.21.3Zm0-2.15H109a1.81,1.81,0,0,0,2.09-2,2.29,2.29,0,0,0-.12-.76,1.73,1.73,0,0,0-.39-.6,1.8,1.8,0,0,0-.65-.38,2.84,2.84,0,0,0-.93-.14h-1.49Z"/></g></g></svg>